<?xml version="1.0" encoding="utf-8"?>
<!-- Svg Vector Icons : http://www.onlinewebfonts.com/icon -->
<!DOCTYPE svg PUBLIC "-//W3C//DTD SVG 1.1//EN" "http://www.w3.org/Graphics/SVG/1.1/DTD/svg11.dtd">
<svg version="1.1" xmlns="http://www.w3.org/2000/svg" xmlns:xlink="http://www.w3.org/1999/xlink" x="0px" y="0px" viewBox="0 0 1000 1000" enable-background="new 0 0 1000 1000" xml:space="preserve">
<metadata> Svg Vector Icons : http://www.onlinewebfonts.com/icon </metadata>
<g><g transform="translate(0.000000,511.000000) scale(0.100000,-0.100000)"><path d="M4770.2,4850.6c-315.2-43.8-424.7-65.7-623.8-131.3c-1000.3-321.8-1749-1190.8-1908.7-2213l-24.1-157.6l-243-81C714.2,1851.8-3.8,1155.7,112.2,470.6c153.2-888.7,1578.2-1635.1,3596.4-1875.9c2031.3-245.2,4248.7,118.2,5406.7,886.5c258.3,170.7,556,466.2,650.1,645.7c236.4,446.5,162,871.2-227.7,1278.3c-332.7,350.2-842.7,641.4-1508.2,862.4l-243,81l-26.3,170.7c-37.2,249.5-122.6,507.8-253.9,779.3C7123.3,4077.9,6376.9,4647.1,5521,4809C5339.4,4841.9,4892.8,4868.1,4770.2,4850.6z M5260.6,4141.4c704.8-89.7,1309-525.3,1622-1168.9c146.7-304.3,197-507.8,212.3-858.1l13.1-286.7l-151-85.4c-83.2-46-234.2-116-337.1-155.4c-197-74.4-582.3-175.1-599.8-157.6c-6.6,6.6,13.1,70,41.6,142.3c89.7,223.3,122.6,383.1,135.7,643.5c13.1,293.3-19.7,470.6-127,683c-133.5,264.8-431.2,485.9-763.9,566.9c-199.2,48.1-505.7,35-715.8-32.8c-545-177.3-814.3-591-788-1217.1c10.9-260.5,43.8-415.9,135.7-643.5c28.5-72.2,48.2-135.7,41.6-142.3c-17.5-17.5-402.8,83.2-599.8,157.6c-102.9,39.4-253.9,109.4-337.1,155.4l-151,85.4l13.1,275.8c15.3,328.3,70,573.5,188.3,823c306.5,656.7,888.7,1096.7,1589.2,1206.1C4908.1,4167.7,5035.1,4167.7,5260.6,4141.4z M4417.8,2191.1c129.1-48.1,324-205.8,374.3-306.5c105.1-201.4-70-297.7-348-192.6c-129.1,48.1-324,205.8-374.3,306.5C3964.7,2202,4137.7,2298.3,4417.8,2191.1z M5915.1,2202c192.6-135.7-234.2-556-564.7-556c-98.5,0-175.1,59.1-175.1,131.3c0,140.1,245.2,374.3,459.7,440C5729,2245.8,5864.7,2239.2,5915.1,2202z M2257.4,914.9c299.9-155.4,380.9-549.4,164.2-801.1C2309.9-17.6,2193.9-70.1,2023.1-70.1c-472.8,0-700.5,551.6-363.4,882.1c52.5,50.4,133.5,107.3,179.5,124.8C1944.3,976.2,2163.2,965.3,2257.4,914.9z M8211.2,917.1c157.6-83.2,262.7-234.2,284.6-409.3c24.1-214.5-89.8-426.9-286.8-529.7c-124.8-67.9-339.3-67.9-464,0c-175.1,89.8-293.3,280.2-293.3,468.4c0,194.8,157.6,422.5,341.5,490.3C7898.2,976.2,8117.1,965.3,8211.2,917.1z M5234.3,216.7c157.6-83.2,262.7-234.2,284.6-409.3c24.1-214.5-89.7-426.8-286.7-529.7c-122.6-65.7-339.3-67.9-461.9-2.2C4536-599.8,4426.6-345.9,4501-98.6c35,113.8,201.4,293.3,313,334.9C4921.3,275.8,5140.2,264.8,5234.3,216.7z"/><path d="M961.5-2817.2C703.2-3336,490.9-3765,490.9-3771.6c0-13.1,615.1-321.8,623.8-313c17.5,19.7,976.3,1950.3,969.7,1954.7c-4.4,4.4-133.5,54.7-291.1,116c-155.4,59.1-302.1,116-321.8,124.8C1440.9-1876,1357.7-2027,961.5-2817.2z"/><path d="M8239.7-2000.7c-162-63.5-304.3-120.4-315.2-124.8c-13.1-4.4,925.9-1919.7,960.9-1959.1c8.8-8.8,623.8,299.9,623.8,313c0,30.7-943.4,1893.4-958.8,1891.2C8541.8-1882.5,8401.7-1935.1,8239.7-2000.7z"/><path d="M4649.9-3585.5v-1050.7h350.2h350.2v1050.7v1050.7h-350.2h-350.2V-3585.5z"/></g></g>
</svg>